{
  "accessors": [
    {
      "bufferView": 2,
      "componentType": 5126,
      "count": 695,
      "max": [
        0.9056000113487244,
        0.16439999639987946,
        1.8984999656677246
      ],
      "min": [
        -0.9090999960899353,
        -0.18799999356269836,
        0.004100000020116568
      ],
      "type": "VEC3"
    },
    {
      "bufferView": 2,
      "byteOffset": 8340,
      "componentType": 5126,
      "count": 695,
      "max": [
        0.9973160624504089,
        0.9991133809089661,
        0.9988049864768982
      ],
      "min": [
        -0.9973160624504089,
        -0.9997919201850891,
        -0.9999984502792358
      ],
      "type": "VEC3"
    },
    {
      "bufferView": 1,
      "componentType": 5126,
      "count": 695,
      "max": [
        0.9998999834060669,
        0.9921000003814697
      ],
      "min": [
        0.0020000000949949026,
        0.0012999773025512695
      ],
      "type": "VEC2"
    },
    {
      "bufferView": 0,
      "componentType": 5125,
      "count": 2814,
      "type": "SCALAR"
    }
  ],
  "asset": {
    "extras": {
      "author": "patrick.ambrose2840 (https://sketchfab.com/patrick.ambrose2840)",
      "license": "CC-BY-4.0 (http://creativecommons.org/licenses/by/4.0/)",
      "source": "https://sketchfab.com/3d-models/fat-man-the-incredibles-2e661cf1301b445cbe10dad8f0f956b3",
      "title": "Fat Man (the Incredibles)"
    },
    "generator": "Sketchfab-14.1.2",
    "version": "2.0"
  },
  "bufferViews": [
    {
      "buffer": 0,
      "byteLength": 11256,
      "name": "floatBufferViews",
      "target": 34963
    },
    {
      "buffer": 0,
      "byteLength": 5560,
      "byteOffset": 11256,
      "byteStride": 8,
      "name": "floatBufferViews",
      "target": 34962
    },
    {
      "buffer": 0,
      "byteLength": 16680,
      "byteOffset": 16816,
      "byteStride": 12,
      "name": "floatBufferViews",
      "target": 34962
    }
  ],
  "buffers": [
    {
      "byteLength": 33496,
      "uri": "scene.bin"
    }
  ],
  "images": [
    {
      "uri": "textures/mat_civilian_man_fat_baseColor.png"
    }
  ],
  "materials": [
    {
      "doubleSided": true,
      "name": "mat_civilian_man_fat",
      "pbrMetallicRoughness": {
        "baseColorTexture": {
          "index": 0
        },
        "metallicFactor": 0.0
      }
    }
  ],
  "meshes": [
    {
      "name": "Object_0",
      "primitives": [
        {
          "attributes": {
            "NORMAL": 1,
            "POSITION": 0,
            "TEXCOORD_0": 2
          },
          "indices": 3,
          "material": 0,
          "mode": 4
        }
      ]
    }
  ],
  "nodes": [
    {
      "children": [
        1
      ],
      "matrix": [
        1.0,
        0.0,
        0.0,
        0.0,
        0.0,
        2.220446049250313e-16,
        -1.0,
        0.0,
        0.0,
        1.0,
        2.220446049250313e-16,
        0.0,
        0.0,
        0.0,
        0.0,
        1.0
      ],
      "name": "Sketchfab_model"
    },
    {
      "children": [
        2
      ],
      "name": "fat guy.obj.cleaner.materialmerger.gles"
    },
    {
      "mesh": 0,
      "name": "Object_2"
    }
  ],
  "samplers": [
    {
      "magFilter": 9729,
      "minFilter": 9987,
      "wrapS": 10497,
      "wrapT": 10497
    }
  ],
  "scene": 0,
  "scenes": [
    {
      "name": "Sketchfab_Scene",
      "nodes": [
        0
      ]
    }
  ],
  "textures": [
    {
      "sampler": 0,
      "source": 0
    }
  ]
}
